<?xml version="1.0" encoding="utf-8" standalone="no"?>
<!DOCTYPE svg PUBLIC "-//W3C//DTD SVG 1.1//EN"
  "http://www.w3.org/Graphics/SVG/1.1/DTD/svg11.dtd">
<svg xmlns:xlink="http://www.w3.org/1999/xlink" width="1036.045pt" height="559.73625pt" viewBox="0 0 1036.045 559.73625" xmlns="http://www.w3.org/2000/svg" version="1.1">
 <metadata>
  <rdf:RDF xmlns:dc="http://purl.org/dc/elements/1.1/" xmlns:cc="http://creativecommons.org/ns#" xmlns:rdf="http://www.w3.org/1999/02/22-rdf-syntax-ns#">
   <cc:Work>
    <dc:type rdf:resource="http://purl.org/dc/dcmitype/StillImage"/>
    <dc:date>2023-01-22T14:34:55.581898</dc:date>
    <dc:format>image/svg+xml</dc:format>
    <dc:creator>
     <cc:Agent>
      <dc:title>Matplotlib v3.6.3, https://matplotlib.org/</dc:title>
     </cc:Agent>
    </dc:creator>
   </cc:Work>
  </rdf:RDF>
 </metadata>
 <defs>
  <style type="text/css">*{stroke-linejoin: round; stroke-linecap: butt}</style>
 </defs>
 <g id="figure_1">
  <g id="patch_1">
   <path d="M 0 559.73625 
L 1036.045 559.73625 
L 1036.045 0 
L 0 0 
z
" style="fill: #ffffff"/>
  </g>
  <g id="axes_1">
   <g id="patch_2">
    <path d="M 60.3025 456.30625 
L 897.3025 456.30625 
L 897.3025 12.78625 
L 60.3025 12.78625 
z
" style="fill: #ffffff"/>
   </g>
   <g id="matplotlib.axis_1">
    <g id="xtick_1">
     <g id="line2d_1">
      <path d="M 98.347955 456.30625 
L 98.347955 12.78625 
" clip-path="url(#p6edd5861ad)" style="fill: none; stroke: #b0b0b0; stroke-opacity: 0.5; stroke-width: 0.8; stroke-linecap: square"/>
     </g>
     <g id="line2d_2">
      <defs>
       <path id="m96ce86013d" d="M 0 0 
L 0 3.5 
" style="stroke: #000000; stroke-width: 0.8"/>
      </defs>
      <g>
       <use xlink:href="#m96ce86013d" x="98.347955" y="456.30625" style="stroke: #000000; stroke-width: 0.8"/>
      </g>
     </g>
     <g id="text_1">
      <!-- 2021-08-15 -->
      <g transform="translate(102.062955 533.62125) rotate(-90) scale(0.16 -0.16)">
       <defs>
        <path id="LinLibertine-32" d="M 391 2994 
Q 391 3313 717 3608 
Q 1044 3903 1544 3903 
Q 1978 3903 2301 3658 
Q 2625 3413 2625 2931 
Q 2625 2700 2528 2495 
Q 2431 2291 2320 2159 
Q 2209 2028 1984 1813 
L 1338 1191 
Q 863 716 863 416 
L 2003 416 
Q 2175 416 2272 550 
Q 2369 684 2450 1031 
Q 2572 1056 2638 997 
Q 2625 550 2484 -13 
Q 2191 0 1984 0 
L 863 0 
L 331 -13 
Q 331 294 476 578 
Q 622 863 1063 1313 
L 1538 1778 
Q 2063 2309 2059 2906 
Q 2059 3322 1890 3501 
Q 1722 3681 1503 3681 
Q 1184 3681 1028 3559 
Q 872 3438 872 3291 
Q 872 3259 897 3201 
Q 922 3144 922 3138 
Q 947 3047 947 3003 
Q 947 2906 842 2826 
Q 738 2747 647 2747 
Q 544 2747 467 2819 
Q 391 2891 391 2994 
z
" transform="scale(0.015625)"/>
        <path id="LinLibertine-30" d="M 1484 3681 
Q 1363 3681 1255 3603 
Q 1147 3525 1040 3340 
Q 934 3156 870 2762 
Q 806 2369 806 1813 
Q 806 163 1466 159 
Q 1522 159 1586 178 
Q 1650 197 1737 251 
Q 1825 306 1904 431 
Q 1984 556 2034 744 
Q 2144 1141 2144 2059 
Q 2144 3256 1772 3572 
Q 1650 3681 1484 3681 
z
M 1459 -63 
Q 1078 -63 809 206 
Q 547 466 398 916 
Q 250 1366 250 1881 
Q 250 2791 617 3347 
Q 984 3903 1484 3903 
Q 1953 3903 2266 3488 
Q 2700 2913 2700 1941 
Q 2700 1409 2578 998 
Q 2456 588 2262 367 
Q 2069 147 1862 42 
Q 1656 -63 1459 -63 
z
" transform="scale(0.015625)"/>
        <path id="LinLibertine-31" d="M 1844 781 
Q 1844 397 1942 305 
Q 2041 213 2400 197 
Q 2431 166 2431 89 
Q 2431 13 2400 -13 
Q 1759 0 1619 0 
Q 1356 0 728 -13 
Q 703 13 703 89 
Q 703 166 728 197 
Q 1100 209 1225 309 
Q 1350 409 1350 781 
L 1350 2869 
Q 1350 3241 1222 3238 
Q 1050 3238 666 3078 
Q 588 3128 569 3250 
Q 1466 3666 1825 3891 
Q 1863 3891 1863 3859 
Q 1844 3713 1844 3003 
L 1844 781 
z
" transform="scale(0.015625)"/>
        <path id="LinLibertine-2d" d="M 1734 1428 
L 353 1428 
Q 256 1428 256 1550 
Q 256 1641 307 1727 
Q 359 1813 416 1813 
L 1819 1813 
Q 1909 1813 1906 1684 
Q 1906 1622 1848 1525 
Q 1791 1428 1734 1428 
z
" transform="scale(0.015625)"/>
        <path id="LinLibertine-38" d="M 1497 3681 
Q 1222 3681 1065 3526 
Q 909 3372 909 3144 
Q 909 2966 995 2808 
Q 1081 2650 1356 2472 
L 1556 2350 
Q 2069 2728 2069 3109 
Q 2069 3353 1930 3517 
Q 1791 3681 1497 3681 
z
M 2516 3103 
Q 2516 2828 2269 2595 
Q 2022 2363 1728 2216 
L 2181 1941 
Q 2681 1641 2681 1038 
Q 2681 628 2348 282 
Q 2016 -63 1434 -63 
Q 916 -63 605 195 
Q 294 453 294 934 
Q 294 1375 666 1703 
Q 888 1897 1181 2053 
L 1019 2156 
Q 456 2509 453 3022 
Q 453 3400 751 3651 
Q 1050 3903 1528 3903 
Q 1988 3903 2252 3679 
Q 2516 3456 2516 3103 
z
M 1447 159 
Q 1741 159 1978 323 
Q 2216 488 2216 909 
Q 2216 1422 1656 1759 
L 1356 1941 
Q 997 1703 859 1425 
Q 722 1147 722 934 
Q 722 544 950 351 
Q 1178 159 1447 159 
z
" transform="scale(0.015625)"/>
        <path id="LinLibertine-35" d="M 2041 1209 
Q 2041 1709 1836 1945 
Q 1631 2181 1300 2181 
Q 897 2181 488 2028 
L 703 3872 
Q 1075 3841 1394 3841 
Q 1778 3841 2444 3909 
L 2491 3884 
L 2388 3450 
Q 1991 3413 1716 3413 
Q 1497 3413 966 3469 
L 838 2400 
Q 1100 2503 1466 2503 
Q 1984 2503 2298 2158 
Q 2613 1813 2613 1325 
Q 2613 716 2231 322 
Q 1850 -72 1253 -72 
Q 959 -72 653 76 
Q 347 225 347 409 
Q 347 506 420 576 
Q 494 647 588 647 
Q 759 647 916 441 
Q 922 428 953 387 
Q 984 347 998 326 
Q 1013 306 1044 275 
Q 1075 244 1100 228 
Q 1125 213 1164 189 
Q 1203 166 1245 159 
Q 1288 153 1338 153 
Q 1631 153 1836 458 
Q 2041 763 2041 1209 
z
" transform="scale(0.015625)"/>
       </defs>
       <use xlink:href="#LinLibertine-32"/>
       <use xlink:href="#LinLibertine-30" x="46.484375"/>
       <use xlink:href="#LinLibertine-32" x="92.96875"/>
       <use xlink:href="#LinLibertine-31" x="139.453125"/>
       <use xlink:href="#LinLibertine-2d" x="185.9375"/>
       <use xlink:href="#LinLibertine-30" x="219.726562"/>
       <use xlink:href="#LinLibertine-38" x="266.210938"/>
       <use xlink:href="#LinLibertine-2d" x="312.695312"/>
       <use xlink:href="#LinLibertine-31" x="346.484375"/>
       <use xlink:href="#LinLibertine-35" x="392.96875"/>
      </g>
     </g>
    </g>
    <g id="xtick_2">
     <g id="line2d_3">
      <path d="M 161.757045 456.30625 
L 161.757045 12.78625 
" clip-path="url(#p6edd5861ad)" style="fill: none; stroke: #b0b0b0; stroke-opacity: 0.5; stroke-width: 0.8; stroke-linecap: square"/>
     </g>
     <g id="line2d_4">
      <g>
       <use xlink:href="#m96ce86013d" x="161.757045" y="456.30625" style="stroke: #000000; stroke-width: 0.8"/>
      </g>
     </g>
     <g id="text_2">
      <!-- 2021-08-22 -->
      <g transform="translate(165.472045 533.62125) rotate(-90) scale(0.16 -0.16)">
       <use xlink:href="#LinLibertine-32"/>
       <use xlink:href="#LinLibertine-30" x="46.484375"/>
       <use xlink:href="#LinLibertine-32" x="92.96875"/>
       <use xlink:href="#LinLibertine-31" x="139.453125"/>
       <use xlink:href="#LinLibertine-2d" x="185.9375"/>
       <use xlink:href="#LinLibertine-30" x="219.726562"/>
       <use xlink:href="#LinLibertine-38" x="266.210938"/>
       <use xlink:href="#LinLibertine-2d" x="312.695312"/>
       <use xlink:href="#LinLibertine-32" x="346.484375"/>
       <use xlink:href="#LinLibertine-32" x="392.96875"/>
      </g>
     </g>
    </g>
    <g id="xtick_3">
     <g id="line2d_5">
      <path d="M 225.166136 456.30625 
L 225.166136 12.78625 
" clip-path="url(#p6edd5861ad)" style="fill: none; stroke: #b0b0b0; stroke-opacity: 0.5; stroke-width: 0.8; stroke-linecap: square"/>
     </g>
     <g id="line2d_6">
      <g>
       <use xlink:href="#m96ce86013d" x="225.166136" y="456.30625" style="stroke: #000000; stroke-width: 0.8"/>
      </g>
     </g>
     <g id="text_3">
      <!-- 2021-08-29 -->
      <g transform="translate(228.881136 533.62125) rotate(-90) scale(0.16 -0.16)">
       <defs>
        <path id="LinLibertine-39" d="M 2150 1869 
Q 2203 2125 2203 2369 
Q 2203 3125 1993 3403 
Q 1784 3681 1434 3681 
Q 1184 3681 1017 3418 
Q 850 3156 850 2656 
Q 850 2516 886 2372 
Q 922 2228 998 2073 
Q 1075 1919 1234 1820 
Q 1394 1722 1619 1722 
Q 1925 1722 2150 1869 
z
M 2091 1638 
Q 1788 1500 1484 1497 
Q 875 1497 597 1789 
Q 319 2081 319 2541 
Q 319 3034 626 3468 
Q 934 3903 1503 3903 
Q 1716 3903 1908 3839 
Q 2100 3775 2298 3619 
Q 2497 3463 2614 3136 
Q 2731 2809 2731 2350 
Q 2731 1494 2138 800 
Q 1606 178 738 -78 
Q 659 -34 659 91 
Q 1250 313 1595 725 
Q 1941 1138 2091 1638 
z
" transform="scale(0.015625)"/>
       </defs>
       <use xlink:href="#LinLibertine-32"/>
       <use xlink:href="#LinLibertine-30" x="46.484375"/>
       <use xlink:href="#LinLibertine-32" x="92.96875"/>
       <use xlink:href="#LinLibertine-31" x="139.453125"/>
       <use xlink:href="#LinLibertine-2d" x="185.9375"/>
       <use xlink:href="#LinLibertine-30" x="219.726562"/>
       <use xlink:href="#LinLibertine-38" x="266.210938"/>
       <use xlink:href="#LinLibertine-2d" x="312.695312"/>
       <use xlink:href="#LinLibertine-32" x="346.484375"/>
       <use xlink:href="#LinLibertine-39" x="392.96875"/>
      </g>
     </g>
    </g>
    <g id="xtick_4">
     <g id="line2d_7">
      <path d="M 288.575227 456.30625 
L 288.575227 12.78625 
" clip-path="url(#p6edd5861ad)" style="fill: none; stroke: #b0b0b0; stroke-opacity: 0.5; stroke-width: 0.8; stroke-linecap: square"/>
     </g>
     <g id="line2d_8">
      <g>
       <use xlink:href="#m96ce86013d" x="288.575227" y="456.30625" style="stroke: #000000; stroke-width: 0.8"/>
      </g>
     </g>
     <g id="text_4">
      <!-- 2021-09-05 -->
      <g transform="translate(292.290227 533.62125) rotate(-90) scale(0.16 -0.16)">
       <use xlink:href="#LinLibertine-32"/>
       <use xlink:href="#LinLibertine-30" x="46.484375"/>
       <use xlink:href="#LinLibertine-32" x="92.96875"/>
       <use xlink:href="#LinLibertine-31" x="139.453125"/>
       <use xlink:href="#LinLibertine-2d" x="185.9375"/>
       <use xlink:href="#LinLibertine-30" x="219.726562"/>
       <use xlink:href="#LinLibertine-39" x="266.210938"/>
       <use xlink:href="#LinLibertine-2d" x="312.695312"/>
       <use xlink:href="#LinLibertine-30" x="346.484375"/>
       <use xlink:href="#LinLibertine-35" x="392.96875"/>
      </g>
     </g>
    </g>
    <g id="xtick_5">
     <g id="line2d_9">
      <path d="M 351.984318 456.30625 
L 351.984318 12.78625 
" clip-path="url(#p6edd5861ad)" style="fill: none; stroke: #b0b0b0; stroke-opacity: 0.5; stroke-width: 0.8; stroke-linecap: square"/>
     </g>
     <g id="line2d_10">
      <g>
       <use xlink:href="#m96ce86013d" x="351.984318" y="456.30625" style="stroke: #000000; stroke-width: 0.8"/>
      </g>
     </g>
     <g id="text_5">
      <!-- 2021-09-12 -->
      <g transform="translate(355.699318 533.62125) rotate(-90) scale(0.16 -0.16)">
       <use xlink:href="#LinLibertine-32"/>
       <use xlink:href="#LinLibertine-30" x="46.484375"/>
       <use xlink:href="#LinLibertine-32" x="92.96875"/>
       <use xlink:href="#LinLibertine-31" x="139.453125"/>
       <use xlink:href="#LinLibertine-2d" x="185.9375"/>
       <use xlink:href="#LinLibertine-30" x="219.726562"/>
       <use xlink:href="#LinLibertine-39" x="266.210938"/>
       <use xlink:href="#LinLibertine-2d" x="312.695312"/>
       <use xlink:href="#LinLibertine-31" x="346.484375"/>
       <use xlink:href="#LinLibertine-32" x="392.96875"/>
      </g>
     </g>
    </g>
    <g id="xtick_6">
     <g id="line2d_11">
      <path d="M 415.393409 456.30625 
L 415.393409 12.78625 
" clip-path="url(#p6edd5861ad)" style="fill: none; stroke: #b0b0b0; stroke-opacity: 0.5; stroke-width: 0.8; stroke-linecap: square"/>
     </g>
     <g id="line2d_12">
      <g>
       <use xlink:href="#m96ce86013d" x="415.393409" y="456.30625" style="stroke: #000000; stroke-width: 0.8"/>
      </g>
     </g>
     <g id="text_6">
      <!-- 2021-09-19 -->
      <g transform="translate(419.108409 533.62125) rotate(-90) scale(0.16 -0.16)">
       <use xlink:href="#LinLibertine-32"/>
       <use xlink:href="#LinLibertine-30" x="46.484375"/>
       <use xlink:href="#LinLibertine-32" x="92.96875"/>
       <use xlink:href="#LinLibertine-31" x="139.453125"/>
       <use xlink:href="#LinLibertine-2d" x="185.9375"/>
       <use xlink:href="#LinLibertine-30" x="219.726562"/>
       <use xlink:href="#LinLibertine-39" x="266.210938"/>
       <use xlink:href="#LinLibertine-2d" x="312.695312"/>
       <use xlink:href="#LinLibertine-31" x="346.484375"/>
       <use xlink:href="#LinLibertine-39" x="392.96875"/>
      </g>
     </g>
    </g>
    <g id="xtick_7">
     <g id="line2d_13">
      <path d="M 478.8025 456.30625 
L 478.8025 12.78625 
" clip-path="url(#p6edd5861ad)" style="fill: none; stroke: #b0b0b0; stroke-opacity: 0.5; stroke-width: 0.8; stroke-linecap: square"/>
     </g>
     <g id="line2d_14">
      <g>
       <use xlink:href="#m96ce86013d" x="478.8025" y="456.30625" style="stroke: #000000; stroke-width: 0.8"/>
      </g>
     </g>
     <g id="text_7">
      <!-- 2021-09-26 -->
      <g transform="translate(482.5175 533.62125) rotate(-90) scale(0.16 -0.16)">
       <defs>
        <path id="LinLibertine-36" d="M 866 1966 
Q 813 1709 813 1466 
Q 813 709 1020 431 
Q 1228 153 1581 153 
Q 1831 153 1997 415 
Q 2163 678 2163 1178 
Q 2163 1319 2128 1462 
Q 2094 1606 2017 1759 
Q 1941 1913 1780 2013 
Q 1619 2113 1394 2113 
Q 1091 2113 866 1966 
z
M 925 2197 
Q 1228 2334 1528 2338 
Q 2138 2338 2416 2045 
Q 2694 1753 2694 1294 
Q 2694 800 2387 364 
Q 2081 -72 1509 -72 
Q 1297 -72 1106 -8 
Q 916 56 717 214 
Q 519 372 400 698 
Q 281 1025 281 1484 
Q 281 2341 878 3034 
Q 1409 3656 2278 3909 
Q 2356 3859 2356 3744 
Q 1766 3522 1420 3109 
Q 1075 2697 925 2197 
z
" transform="scale(0.015625)"/>
       </defs>
       <use xlink:href="#LinLibertine-32"/>
       <use xlink:href="#LinLibertine-30" x="46.484375"/>
       <use xlink:href="#LinLibertine-32" x="92.96875"/>
       <use xlink:href="#LinLibertine-31" x="139.453125"/>
       <use xlink:href="#LinLibertine-2d" x="185.9375"/>
       <use xlink:href="#LinLibertine-30" x="219.726562"/>
       <use xlink:href="#LinLibertine-39" x="266.210938"/>
       <use xlink:href="#LinLibertine-2d" x="312.695312"/>
       <use xlink:href="#LinLibertine-32" x="346.484375"/>
       <use xlink:href="#LinLibertine-36" x="392.96875"/>
      </g>
     </g>
    </g>
    <g id="xtick_8">
     <g id="line2d_15">
      <path d="M 542.211591 456.30625 
L 542.211591 12.78625 
" clip-path="url(#p6edd5861ad)" style="fill: none; stroke: #b0b0b0; stroke-opacity: 0.5; stroke-width: 0.8; stroke-linecap: square"/>
     </g>
     <g id="line2d_16">
      <g>
       <use xlink:href="#m96ce86013d" x="542.211591" y="456.30625" style="stroke: #000000; stroke-width: 0.8"/>
      </g>
     </g>
     <g id="text_8">
      <!-- 2021-10-03 -->
      <g transform="translate(545.926591 533.62125) rotate(-90) scale(0.16 -0.16)">
       <defs>
        <path id="LinLibertine-33" d="M 1375 3681 
Q 1259 3681 1139 3648 
Q 1019 3616 894 3497 
Q 769 3378 769 3194 
Q 769 2863 519 2859 
Q 416 2859 358 2931 
Q 300 3003 300 3078 
Q 300 3175 361 3300 
Q 422 3425 550 3569 
Q 678 3713 931 3808 
Q 1184 3903 1509 3903 
Q 1963 3903 2209 3653 
Q 2409 3450 2409 3147 
Q 2409 2878 2261 2676 
Q 2113 2475 1734 2297 
L 1741 2284 
Q 2100 2228 2372 1984 
Q 2644 1741 2644 1275 
Q 2644 666 2220 301 
Q 1797 -63 1203 -63 
Q 884 -63 582 60 
Q 281 184 281 366 
Q 281 444 367 516 
Q 453 588 550 588 
Q 703 588 825 422 
Q 831 416 854 381 
Q 878 347 887 333 
Q 897 319 919 291 
Q 941 263 959 250 
Q 978 238 1014 214 
Q 1050 191 1087 181 
Q 1125 172 1176 165 
Q 1228 159 1288 159 
Q 1391 159 1508 204 
Q 1625 250 1762 348 
Q 1900 447 1990 665 
Q 2081 884 2081 1184 
Q 2081 2009 1241 2009 
Q 1044 2009 934 1997 
L 903 2203 
Q 1347 2266 1628 2548 
Q 1909 2831 1909 3103 
Q 1909 3300 1831 3433 
Q 1753 3566 1637 3623 
Q 1522 3681 1375 3681 
z
" transform="scale(0.015625)"/>
       </defs>
       <use xlink:href="#LinLibertine-32"/>
       <use xlink:href="#LinLibertine-30" x="46.484375"/>
       <use xlink:href="#LinLibertine-32" x="92.96875"/>
       <use xlink:href="#LinLibertine-31" x="139.453125"/>
       <use xlink:href="#LinLibertine-2d" x="185.9375"/>
       <use xlink:href="#LinLibertine-31" x="219.726562"/>
       <use xlink:href="#LinLibertine-30" x="266.210938"/>
       <use xlink:href="#LinLibertine-2d" x="312.695312"/>
       <use xlink:href="#LinLibertine-30" x="346.484375"/>
       <use xlink:href="#LinLibertine-33" x="392.96875"/>
      </g>
     </g>
    </g>
    <g id="xtick_9">
     <g id="line2d_17">
      <path d="M 605.620682 456.30625 
L 605.620682 12.78625 
" clip-path="url(#p6edd5861ad)" style="fill: none; stroke: #b0b0b0; stroke-opacity: 0.5; stroke-width: 0.8; stroke-linecap: square"/>
     </g>
     <g id="line2d_18">
      <g>
       <use xlink:href="#m96ce86013d" x="605.620682" y="456.30625" style="stroke: #000000; stroke-width: 0.8"/>
      </g>
     </g>
     <g id="text_9">
      <!-- 2021-10-10 -->
      <g transform="translate(609.335682 533.62125) rotate(-90) scale(0.16 -0.16)">
       <use xlink:href="#LinLibertine-32"/>
       <use xlink:href="#LinLibertine-30" x="46.484375"/>
       <use xlink:href="#LinLibertine-32" x="92.96875"/>
       <use xlink:href="#LinLibertine-31" x="139.453125"/>
       <use xlink:href="#LinLibertine-2d" x="185.9375"/>
       <use xlink:href="#LinLibertine-31" x="219.726562"/>
       <use xlink:href="#LinLibertine-30" x="266.210938"/>
       <use xlink:href="#LinLibertine-2d" x="312.695312"/>
       <use xlink:href="#LinLibertine-31" x="346.484375"/>
       <use xlink:href="#LinLibertine-30" x="392.96875"/>
      </g>
     </g>
    </g>
    <g id="xtick_10">
     <g id="line2d_19">
      <path d="M 669.029773 456.30625 
L 669.029773 12.78625 
" clip-path="url(#p6edd5861ad)" style="fill: none; stroke: #b0b0b0; stroke-opacity: 0.5; stroke-width: 0.8; stroke-linecap: square"/>
     </g>
     <g id="line2d_20">
      <g>
       <use xlink:href="#m96ce86013d" x="669.029773" y="456.30625" style="stroke: #000000; stroke-width: 0.8"/>
      </g>
     </g>
     <g id="text_10">
      <!-- 2021-10-17 -->
      <g transform="translate(672.744773 533.62125) rotate(-90) scale(0.16 -0.16)">
       <defs>
        <path id="LinLibertine-37" d="M 1088 3425 
Q 966 3425 880 3395 
Q 794 3366 694 3237 
Q 594 3109 531 2869 
Q 434 2856 325 2888 
Q 447 3688 453 3909 
Q 453 3928 481 3928 
Q 506 3922 589 3881 
Q 672 3841 800 3841 
L 2119 3841 
Q 2375 3841 2613 3909 
L 2713 3834 
Q 2022 2144 1281 -63 
L 844 -84 
L 794 -38 
Q 1269 1019 2234 3425 
L 1088 3425 
z
" transform="scale(0.015625)"/>
       </defs>
       <use xlink:href="#LinLibertine-32"/>
       <use xlink:href="#LinLibertine-30" x="46.484375"/>
       <use xlink:href="#LinLibertine-32" x="92.96875"/>
       <use xlink:href="#LinLibertine-31" x="139.453125"/>
       <use xlink:href="#LinLibertine-2d" x="185.9375"/>
       <use xlink:href="#LinLibertine-31" x="219.726562"/>
       <use xlink:href="#LinLibertine-30" x="266.210938"/>
       <use xlink:href="#LinLibertine-2d" x="312.695312"/>
       <use xlink:href="#LinLibertine-31" x="346.484375"/>
       <use xlink:href="#LinLibertine-37" x="392.96875"/>
      </g>
     </g>
    </g>
    <g id="xtick_11">
     <g id="line2d_21">
      <path d="M 732.438864 456.30625 
L 732.438864 12.78625 
" clip-path="url(#p6edd5861ad)" style="fill: none; stroke: #b0b0b0; stroke-opacity: 0.5; stroke-width: 0.8; stroke-linecap: square"/>
     </g>
     <g id="line2d_22">
      <g>
       <use xlink:href="#m96ce86013d" x="732.438864" y="456.30625" style="stroke: #000000; stroke-width: 0.8"/>
      </g>
     </g>
     <g id="text_11">
      <!-- 2021-10-24 -->
      <g transform="translate(736.153864 533.62125) rotate(-90) scale(0.16 -0.16)">
       <defs>
        <path id="LinLibertine-34" d="M 1734 3244 
Q 1247 2578 513 1403 
L 1734 1403 
L 1734 3244 
z
M 2753 1403 
Q 2850 1403 2847 1300 
Q 2847 1244 2786 1172 
Q 2725 1100 2663 1100 
L 2222 1100 
L 2222 513 
Q 2222 409 2237 348 
Q 2253 288 2320 259 
Q 2388 231 2425 225 
Q 2463 219 2603 203 
Q 2647 197 2669 197 
Q 2700 166 2700 89 
Q 2700 13 2669 -13 
Q 2259 0 1972 0 
Q 1625 0 1216 -13 
Q 1191 13 1191 89 
Q 1191 166 1216 197 
Q 1559 222 1644 291 
Q 1734 363 1734 513 
L 1734 1100 
L 428 1100 
Q 231 1100 178 1369 
Q 1169 2925 1913 3834 
Q 1969 3906 2016 3903 
L 2222 3903 
L 2234 3891 
Q 2222 3834 2222 3272 
L 2222 1403 
L 2753 1403 
z
" transform="scale(0.015625)"/>
       </defs>
       <use xlink:href="#LinLibertine-32"/>
       <use xlink:href="#LinLibertine-30" x="46.484375"/>
       <use xlink:href="#LinLibertine-32" x="92.96875"/>
       <use xlink:href="#LinLibertine-31" x="139.453125"/>
       <use xlink:href="#LinLibertine-2d" x="185.9375"/>
       <use xlink:href="#LinLibertine-31" x="219.726562"/>
       <use xlink:href="#LinLibertine-30" x="266.210938"/>
       <use xlink:href="#LinLibertine-2d" x="312.695312"/>
       <use xlink:href="#LinLibertine-32" x="346.484375"/>
       <use xlink:href="#LinLibertine-34" x="392.96875"/>
      </g>
     </g>
    </g>
    <g id="xtick_12">
     <g id="line2d_23">
      <path d="M 795.847955 456.30625 
L 795.847955 12.78625 
" clip-path="url(#p6edd5861ad)" style="fill: none; stroke: #b0b0b0; stroke-opacity: 0.5; stroke-width: 0.8; stroke-linecap: square"/>
     </g>
     <g id="line2d_24">
      <g>
       <use xlink:href="#m96ce86013d" x="795.847955" y="456.30625" style="stroke: #000000; stroke-width: 0.8"/>
      </g>
     </g>
     <g id="text_12">
      <!-- 2021-10-31 -->
      <g transform="translate(799.562955 533.62125) rotate(-90) scale(0.16 -0.16)">
       <use xlink:href="#LinLibertine-32"/>
       <use xlink:href="#LinLibertine-30" x="46.484375"/>
       <use xlink:href="#LinLibertine-32" x="92.96875"/>
       <use xlink:href="#LinLibertine-31" x="139.453125"/>
       <use xlink:href="#LinLibertine-2d" x="185.9375"/>
       <use xlink:href="#LinLibertine-31" x="219.726562"/>
       <use xlink:href="#LinLibertine-30" x="266.210938"/>
       <use xlink:href="#LinLibertine-2d" x="312.695312"/>
       <use xlink:href="#LinLibertine-33" x="346.484375"/>
       <use xlink:href="#LinLibertine-31" x="392.96875"/>
      </g>
     </g>
    </g>
    <g id="xtick_13">
     <g id="line2d_25">
      <path d="M 859.257045 456.30625 
L 859.257045 12.78625 
" clip-path="url(#p6edd5861ad)" style="fill: none; stroke: #b0b0b0; stroke-opacity: 0.5; stroke-width: 0.8; stroke-linecap: square"/>
     </g>
     <g id="line2d_26">
      <g>
       <use xlink:href="#m96ce86013d" x="859.257045" y="456.30625" style="stroke: #000000; stroke-width: 0.8"/>
      </g>
     </g>
     <g id="text_13">
      <!-- 2021-11-07 -->
      <g transform="translate(862.972045 533.62125) rotate(-90) scale(0.16 -0.16)">
       <use xlink:href="#LinLibertine-32"/>
       <use xlink:href="#LinLibertine-30" x="46.484375"/>
       <use xlink:href="#LinLibertine-32" x="92.96875"/>
       <use xlink:href="#LinLibertine-31" x="139.453125"/>
       <use xlink:href="#LinLibertine-2d" x="185.9375"/>
       <use xlink:href="#LinLibertine-31" x="219.726562"/>
       <use xlink:href="#LinLibertine-31" x="266.210938"/>
       <use xlink:href="#LinLibertine-2d" x="312.695312"/>
       <use xlink:href="#LinLibertine-30" x="346.484375"/>
       <use xlink:href="#LinLibertine-37" x="392.96875"/>
      </g>
     </g>
    </g>
    <g id="text_14">
     <!-- Week -->
     <g transform="translate(459.9325 548.79375) scale(0.16 -0.16)">
      <defs>
       <path id="LinLibertine-57" d="M 5216 3616 
Q 5234 3672 5234 3717 
Q 5234 3763 5221 3795 
Q 5209 3828 5170 3850 
Q 5131 3872 5100 3884 
Q 5069 3897 5008 3906 
Q 4947 3916 4905 3919 
Q 4863 3922 4794 3928 
Q 4763 3953 4763 4031 
Q 4763 4109 4794 4141 
Q 5306 4128 5497 4128 
Q 5581 4128 6053 4141 
Q 6078 4109 6079 4032 
Q 6081 3956 6053 3928 
Q 5803 3916 5686 3820 
Q 5569 3725 5503 3541 
L 4244 72 
Q 4194 -75 4072 -78 
Q 3925 -78 3872 78 
L 3122 2350 
Q 3066 2528 3034 2528 
Q 2997 2528 2944 2369 
L 2053 78 
Q 1997 -75 1875 -78 
Q 1728 -78 1678 78 
L 513 3559 
Q 428 3803 348 3859 
Q 269 3916 38 3928 
Q 13 3953 13 4031 
Q 13 4109 38 4141 
Q 550 4128 634 4128 
Q 934 4128 1356 4141 
Q 1381 4109 1381 4032 
Q 1381 3956 1356 3928 
Q 1222 3922 1151 3903 
Q 1081 3884 1043 3826 
Q 1006 3769 1038 3659 
L 1997 709 
L 2009 709 
L 2816 2828 
Q 2859 2950 2859 3072 
Q 2859 3156 2828 3250 
L 2731 3547 
Q 2688 3694 2547 3805 
Q 2406 3916 2175 3928 
Q 2150 3953 2150 4031 
Q 2150 4109 2175 4141 
Q 2688 4128 2816 4128 
Q 2994 4128 3597 4141 
Q 3622 4109 3622 4032 
Q 3622 3956 3597 3928 
Q 3506 3922 3465 3915 
Q 3425 3909 3354 3884 
Q 3284 3859 3270 3823 
Q 3256 3788 3234 3717 
Q 3213 3647 3263 3547 
L 4184 697 
L 4197 697 
L 5216 3616 
z
" transform="scale(0.015625)"/>
       <path id="LinLibertine-65" d="M 794 1806 
L 1953 1825 
Q 2050 1825 2047 1913 
Q 2047 2278 1890 2431 
Q 1734 2584 1516 2584 
Q 1431 2584 1350 2562 
Q 1269 2541 1150 2470 
Q 1031 2400 934 2228 
Q 838 2056 794 1806 
z
M 2472 594 
Q 2581 588 2606 494 
Q 2178 -63 1516 -63 
Q 881 -63 538 347 
Q 238 694 238 1294 
Q 238 1972 644 2384 
Q 1050 2797 1516 2797 
Q 2597 2797 2597 1684 
Q 2597 1575 2478 1575 
L 775 1588 
Q 775 1050 978 709 
Q 1259 250 1678 250 
Q 1947 250 2117 326 
Q 2288 403 2472 594 
z
" transform="scale(0.015625)"/>
       <path id="LinLibertine-6b" d="M 550 781 
L 550 3578 
Q 550 3784 540 3886 
Q 531 3988 461 4036 
Q 391 4084 352 4087 
Q 313 4091 141 4103 
Q 69 4175 103 4294 
Q 672 4338 997 4469 
Q 1081 4469 1081 4403 
Q 1056 4147 1056 3731 
L 1056 1500 
Q 1263 1528 1491 1697 
Q 1722 1869 2003 2222 
Q 2034 2259 2054 2301 
Q 2075 2344 2087 2400 
Q 2100 2456 2042 2498 
Q 1984 2541 1856 2547 
Q 1831 2572 1831 2648 
Q 1831 2725 1856 2759 
Q 2331 2747 2484 2747 
Q 2569 2747 3041 2759 
Q 3072 2728 3072 2650 
Q 3072 2572 3041 2547 
Q 2594 2503 2369 2266 
L 1806 1684 
Q 1781 1659 1778 1619 
Q 1778 1588 1825 1528 
L 2669 469 
Q 2784 322 2903 273 
Q 3022 225 3219 197 
Q 3250 166 3250 89 
Q 3250 13 3219 -13 
Q 2834 0 2693 0 
Q 2553 0 2297 -13 
Q 2278 -13 2272 19 
Q 2234 153 2003 469 
L 1538 1094 
Q 1434 1231 1331 1303 
Q 1247 1331 1056 1338 
L 1056 781 
Q 1056 403 1117 311 
Q 1178 219 1388 197 
Q 1419 166 1420 89 
Q 1422 13 1388 -13 
Q 838 0 806 0 
Q 659 0 122 -13 
Q 91 13 91 89 
Q 91 166 122 197 
Q 403 216 476 306 
Q 550 397 550 781 
z
" transform="scale(0.015625)"/>
      </defs>
      <use xlink:href="#LinLibertine-57"/>
      <use xlink:href="#LinLibertine-65" x="95.361328"/>
      <use xlink:href="#LinLibertine-65" x="140.039062"/>
      <use xlink:href="#LinLibertine-6b" x="184.716797"/>
     </g>
    </g>
   </g>
   <g id="matplotlib.axis_2">
    <g id="ytick_1">
     <g id="line2d_27">
      <path d="M 60.3025 456.30625 
L 897.3025 456.30625 
" clip-path="url(#p6edd5861ad)" style="fill: none; stroke: #b0b0b0; stroke-opacity: 0.5; stroke-width: 0.8; stroke-linecap: square"/>
     </g>
     <g id="line2d_28">
      <defs>
       <path id="m06dcfe2355" d="M 0 0 
L -3.5 0 
" style="stroke: #000000; stroke-width: 0.8"/>
      </defs>
      <g>
       <use xlink:href="#m06dcfe2355" x="60.3025" y="456.30625" style="stroke: #000000; stroke-width: 0.8"/>
      </g>
     </g>
     <g id="text_15">
      <!-- −0.4 -->
      <g transform="translate(26.115 461.8925) scale(0.16 -0.16)">
       <defs>
        <path id="LinLibertine-2212" d="M 2963 1447 
L 481 1447 
Q 384 1447 384 1550 
Q 384 1622 436 1694 
Q 488 1766 544 1766 
L 3047 1766 
Q 3138 1766 3138 1656 
Q 3138 1606 3078 1526 
Q 3019 1447 2963 1447 
z
" transform="scale(0.015625)"/>
        <path id="LinLibertine-2e" d="M 464 35 
Q 366 134 366 275 
Q 366 416 464 516 
Q 563 616 703 616 
Q 844 616 944 516 
Q 1044 416 1044 275 
Q 1044 134 944 35 
Q 844 -63 703 -63 
Q 563 -63 464 35 
z
" transform="scale(0.015625)"/>
       </defs>
       <use xlink:href="#LinLibertine-2212"/>
       <use xlink:href="#LinLibertine-30" x="54.980469"/>
       <use xlink:href="#LinLibertine-2e" x="101.464844"/>
       <use xlink:href="#LinLibertine-34" x="123.4375"/>
      </g>
     </g>
    </g>
    <g id="ytick_2">
     <g id="line2d_29">
      <path d="M 60.3025 400.86625 
L 897.3025 400.86625 
" clip-path="url(#p6edd5861ad)" style="fill: none; stroke: #b0b0b0; stroke-opacity: 0.5; stroke-width: 0.8; stroke-linecap: square"/>
     </g>
     <g id="line2d_30">
      <g>
       <use xlink:href="#m06dcfe2355" x="60.3025" y="400.86625" style="stroke: #000000; stroke-width: 0.8"/>
      </g>
     </g>
     <g id="text_16">
      <!-- −0.3 -->
      <g transform="translate(26.115 406.4525) scale(0.16 -0.16)">
       <use xlink:href="#LinLibertine-2212"/>
       <use xlink:href="#LinLibertine-30" x="54.980469"/>
       <use xlink:href="#LinLibertine-2e" x="101.464844"/>
       <use xlink:href="#LinLibertine-33" x="123.4375"/>
      </g>
     </g>
    </g>
    <g id="ytick_3">
     <g id="line2d_31">
      <path d="M 60.3025 345.42625 
L 897.3025 345.42625 
" clip-path="url(#p6edd5861ad)" style="fill: none; stroke: #b0b0b0; stroke-opacity: 0.5; stroke-width: 0.8; stroke-linecap: square"/>
     </g>
     <g id="line2d_32">
      <g>
       <use xlink:href="#m06dcfe2355" x="60.3025" y="345.42625" style="stroke: #000000; stroke-width: 0.8"/>
      </g>
     </g>
     <g id="text_17">
      <!-- −0.2 -->
      <g transform="translate(26.115 351.0125) scale(0.16 -0.16)">
       <use xlink:href="#LinLibertine-2212"/>
       <use xlink:href="#LinLibertine-30" x="54.980469"/>
       <use xlink:href="#LinLibertine-2e" x="101.464844"/>
       <use xlink:href="#LinLibertine-32" x="123.4375"/>
      </g>
     </g>
    </g>
    <g id="ytick_4">
     <g id="line2d_33">
      <path d="M 60.3025 289.98625 
L 897.3025 289.98625 
" clip-path="url(#p6edd5861ad)" style="fill: none; stroke: #b0b0b0; stroke-opacity: 0.5; stroke-width: 0.8; stroke-linecap: square"/>
     </g>
     <g id="line2d_34">
      <g>
       <use xlink:href="#m06dcfe2355" x="60.3025" y="289.98625" style="stroke: #000000; stroke-width: 0.8"/>
      </g>
     </g>
     <g id="text_18">
      <!-- −0.1 -->
      <g transform="translate(26.115 295.5725) scale(0.16 -0.16)">
       <use xlink:href="#LinLibertine-2212"/>
       <use xlink:href="#LinLibertine-30" x="54.980469"/>
       <use xlink:href="#LinLibertine-2e" x="101.464844"/>
       <use xlink:href="#LinLibertine-31" x="123.4375"/>
      </g>
     </g>
    </g>
    <g id="ytick_5">
     <g id="line2d_35">
      <path d="M 60.3025 234.54625 
L 897.3025 234.54625 
" clip-path="url(#p6edd5861ad)" style="fill: none; stroke: #b0b0b0; stroke-opacity: 0.5; stroke-width: 0.8; stroke-linecap: square"/>
     </g>
     <g id="line2d_36">
      <g>
       <use xlink:href="#m06dcfe2355" x="60.3025" y="234.54625" style="stroke: #000000; stroke-width: 0.8"/>
      </g>
     </g>
     <g id="text_19">
      <!-- 0.0 -->
      <g transform="translate(34.9125 240.1325) scale(0.16 -0.16)">
       <use xlink:href="#LinLibertine-30"/>
       <use xlink:href="#LinLibertine-2e" x="46.484375"/>
       <use xlink:href="#LinLibertine-30" x="68.457031"/>
      </g>
     </g>
    </g>
    <g id="ytick_6">
     <g id="line2d_37">
      <path d="M 60.3025 179.10625 
L 897.3025 179.10625 
" clip-path="url(#p6edd5861ad)" style="fill: none; stroke: #b0b0b0; stroke-opacity: 0.5; stroke-width: 0.8; stroke-linecap: square"/>
     </g>
     <g id="line2d_38">
      <g>
       <use xlink:href="#m06dcfe2355" x="60.3025" y="179.10625" style="stroke: #000000; stroke-width: 0.8"/>
      </g>
     </g>
     <g id="text_20">
      <!-- 0.1 -->
      <g transform="translate(34.9125 184.6925) scale(0.16 -0.16)">
       <use xlink:href="#LinLibertine-30"/>
       <use xlink:href="#LinLibertine-2e" x="46.484375"/>
       <use xlink:href="#LinLibertine-31" x="68.457031"/>
      </g>
     </g>
    </g>
    <g id="ytick_7">
     <g id="line2d_39">
      <path d="M 60.3025 123.66625 
L 897.3025 123.66625 
" clip-path="url(#p6edd5861ad)" style="fill: none; stroke: #b0b0b0; stroke-opacity: 0.5; stroke-width: 0.8; stroke-linecap: square"/>
     </g>
     <g id="line2d_40">
      <g>
       <use xlink:href="#m06dcfe2355" x="60.3025" y="123.66625" style="stroke: #000000; stroke-width: 0.8"/>
      </g>
     </g>
     <g id="text_21">
      <!-- 0.2 -->
      <g transform="translate(34.9125 129.2525) scale(0.16 -0.16)">
       <use xlink:href="#LinLibertine-30"/>
       <use xlink:href="#LinLibertine-2e" x="46.484375"/>
       <use xlink:href="#LinLibertine-32" x="68.457031"/>
      </g>
     </g>
    </g>
    <g id="ytick_8">
     <g id="line2d_41">
      <path d="M 60.3025 68.22625 
L 897.3025 68.22625 
" clip-path="url(#p6edd5861ad)" style="fill: none; stroke: #b0b0b0; stroke-opacity: 0.5; stroke-width: 0.8; stroke-linecap: square"/>
     </g>
     <g id="line2d_42">
      <g>
       <use xlink:href="#m06dcfe2355" x="60.3025" y="68.22625" style="stroke: #000000; stroke-width: 0.8"/>
      </g>
     </g>
     <g id="text_22">
      <!-- 0.3 -->
      <g transform="translate(34.9125 73.8125) scale(0.16 -0.16)">
       <use xlink:href="#LinLibertine-30"/>
       <use xlink:href="#LinLibertine-2e" x="46.484375"/>
       <use xlink:href="#LinLibertine-33" x="68.457031"/>
      </g>
     </g>
    </g>
    <g id="ytick_9">
     <g id="line2d_43">
      <path d="M 60.3025 12.78625 
L 897.3025 12.78625 
" clip-path="url(#p6edd5861ad)" style="fill: none; stroke: #b0b0b0; stroke-opacity: 0.5; stroke-width: 0.8; stroke-linecap: square"/>
     </g>
     <g id="line2d_44">
      <g>
       <use xlink:href="#m06dcfe2355" x="60.3025" y="12.78625" style="stroke: #000000; stroke-width: 0.8"/>
      </g>
     </g>
     <g id="text_23">
      <!-- 0.4 -->
      <g transform="translate(34.9125 18.3725) scale(0.16 -0.16)">
       <use xlink:href="#LinLibertine-30"/>
       <use xlink:href="#LinLibertine-2e" x="46.484375"/>
       <use xlink:href="#LinLibertine-34" x="68.457031"/>
      </g>
     </g>
    </g>
    <g id="text_24">
     <!-- Mean Sentiment -->
     <g transform="translate(18.3725 288.0575) rotate(-90) scale(0.16 -0.16)">
      <defs>
       <path id="LinLibertine-4d" d="M 4241 744 
L 4078 3419 
L 4063 3419 
L 2625 31 
Q 2588 -41 2534 -38 
Q 2463 -38 2438 31 
L 1113 3353 
L 1100 3353 
L 856 788 
Q 831 488 907 356 
Q 984 225 1281 197 
Q 1306 166 1306 89 
Q 1306 13 1281 -13 
Q 897 0 678 0 
Q 513 0 128 -13 
Q 103 13 103 89 
Q 103 166 128 197 
Q 391 219 484 344 
Q 578 469 606 775 
L 863 3413 
Q 894 3766 831 3837 
Q 769 3909 428 3928 
Q 397 3953 397 4031 
Q 397 4109 428 4141 
L 1356 4128 
L 2669 878 
Q 2706 794 2719 794 
Q 2738 794 2778 884 
L 4134 4128 
L 4972 4141 
Q 5003 4109 5004 4032 
Q 5006 3956 4972 3928 
Q 4656 3909 4584 3825 
Q 4513 3741 4534 3469 
L 4725 775 
Q 4734 622 4742 547 
Q 4750 472 4773 395 
Q 4797 319 4820 292 
Q 4844 266 4905 241 
Q 4966 216 5030 209 
Q 5094 203 5216 197 
Q 5247 166 5247 89 
Q 5247 13 5216 -13 
Q 4794 0 4519 0 
Q 4434 0 3834 -13 
Q 3803 13 3803 89 
Q 3803 166 3834 197 
Q 3959 203 4012 208 
Q 4066 213 4128 234 
Q 4191 256 4208 281 
Q 4225 306 4240 376 
Q 4256 447 4253 522 
Q 4250 597 4241 744 
z
" transform="scale(0.015625)"/>
       <path id="LinLibertine-61" d="M 1875 1491 
L 1369 1356 
Q 759 1203 763 653 
Q 763 481 880 339 
Q 997 197 1222 197 
Q 1447 197 1784 475 
Q 1875 538 1875 641 
L 1875 1491 
z
M 1875 306 
L 1863 306 
L 1734 206 
Q 1522 41 1387 -11 
Q 1253 -63 1038 -63 
Q 672 -63 451 103 
Q 231 269 231 628 
Q 231 947 522 1190 
Q 813 1434 1288 1556 
L 1838 1691 
Q 1875 1703 1875 1766 
Q 1875 2597 1356 2597 
Q 1144 2597 984 2530 
Q 825 2463 825 2328 
Q 825 2238 838 2203 
Q 856 2166 856 2088 
Q 856 2016 779 1945 
Q 703 1875 575 1875 
Q 350 1875 353 2100 
Q 353 2363 686 2586 
Q 1019 2809 1409 2809 
Q 2375 2809 2375 1728 
L 2375 775 
Q 2375 591 2384 494 
Q 2394 397 2455 314 
Q 2516 231 2631 231 
Q 2709 231 2765 281 
Q 2822 331 2828 331 
Q 2847 331 2880 293 
Q 2913 256 2913 225 
Q 2913 206 2845 139 
Q 2778 72 2643 4 
Q 2509 -63 2369 -63 
Q 1984 -66 1875 306 
z
" transform="scale(0.015625)"/>
       <path id="LinLibertine-6e" d="M 1178 2291 
Q 1647 2809 2228 2809 
Q 2594 2809 2759 2591 
Q 2931 2359 2931 1734 
L 2931 781 
Q 2931 403 3004 314 
Q 3078 225 3359 197 
Q 3384 172 3384 95 
Q 3384 19 3359 -13 
Q 2809 0 2681 0 
Q 2566 0 2028 -13 
Q 2003 13 2003 89 
Q 2003 166 2028 197 
Q 2291 222 2358 312 
Q 2425 403 2425 781 
L 2425 1753 
Q 2425 2094 2350 2247 
Q 2228 2478 2009 2478 
Q 1619 2478 1228 2100 
Q 1119 1978 1119 1831 
L 1119 781 
Q 1119 403 1183 314 
Q 1247 225 1503 197 
Q 1534 166 1536 89 
Q 1538 13 1503 -13 
Q 966 0 872 0 
Q 694 0 166 -13 
Q 141 13 141 89 
Q 141 166 166 197 
Q 466 222 541 309 
Q 616 397 616 781 
L 616 2028 
Q 616 2297 542 2367 
Q 469 2438 197 2463 
Q 159 2572 184 2644 
Q 684 2706 991 2828 
Q 1041 2828 1069 2778 
Q 1119 2663 1119 2291 
Q 1122 2213 1178 2291 
z
" transform="scale(0.015625)"/>
       <path id="LinLibertine-20" transform="scale(0.015625)"/>
       <path id="LinLibertine-53" d="M 2525 4038 
Q 2613 3597 2641 3213 
Q 2594 3178 2431 3175 
Q 2400 3275 2370 3354 
Q 2341 3434 2297 3521 
Q 2253 3609 2201 3675 
Q 2150 3741 2078 3803 
Q 2006 3866 1922 3906 
Q 1838 3947 1727 3970 
Q 1616 3994 1484 3994 
Q 1206 3994 995 3772 
Q 784 3550 784 3278 
Q 784 3128 853 2995 
Q 922 2863 1015 2773 
Q 1109 2684 1261 2596 
Q 1413 2509 1516 2467 
Q 1619 2425 1772 2365 
Q 1925 2306 1966 2291 
Q 2153 2209 2298 2117 
Q 2444 2025 2573 1892 
Q 2703 1759 2772 1578 
Q 2841 1397 2841 1178 
Q 2841 875 2678 597 
Q 2516 319 2241 147 
Q 1903 -63 1450 -63 
Q 1147 -63 814 10 
Q 481 84 300 84 
Q 203 488 172 1056 
Q 272 1109 381 1075 
Q 581 166 1503 166 
Q 1888 166 2095 367 
Q 2303 569 2303 953 
Q 2303 1128 2248 1273 
Q 2194 1419 2123 1508 
Q 2053 1597 1923 1680 
Q 1794 1763 1708 1800 
Q 1622 1838 1464 1898 
Q 1306 1959 1250 1984 
Q 972 2106 784 2239 
Q 597 2372 461 2597 
Q 325 2822 325 3103 
Q 325 3597 683 3905 
Q 1041 4213 1544 4213 
Q 1909 4213 2173 4131 
Q 2438 4050 2525 4038 
z
" transform="scale(0.015625)"/>
       <path id="LinLibertine-74" d="M 275 2747 
L 569 2747 
Q 569 2944 567 3086 
Q 566 3228 562 3293 
Q 559 3359 556 3396 
Q 553 3434 551 3453 
Q 550 3472 550 3488 
Q 550 3509 575 3528 
Q 600 3547 629 3556 
Q 659 3566 711 3581 
Q 763 3597 794 3609 
Q 831 3625 890 3656 
Q 950 3688 990 3706 
Q 1031 3725 1050 3725 
Q 1100 3725 1100 3669 
Q 1075 3413 1075 2994 
L 1075 2747 
L 1844 2747 
Q 1894 2747 1894 2706 
L 1894 2578 
Q 1894 2494 1741 2497 
L 1075 2497 
L 1075 878 
Q 1075 566 1120 427 
Q 1166 288 1288 288 
Q 1581 288 1813 469 
Q 1909 463 1925 359 
Q 1547 -63 1063 -63 
Q 569 -63 569 569 
L 569 2497 
L 191 2497 
Q 159 2497 159 2534 
L 159 2619 
Q 159 2747 275 2747 
z
" transform="scale(0.015625)"/>
       <path id="LinLibertine-69" d="M 575 3834 
Q 575 3950 684 4045 
Q 794 4141 909 4141 
Q 1031 4141 1123 4034 
Q 1216 3928 1216 3809 
Q 1216 3700 1114 3600 
Q 1013 3500 884 3500 
Q 769 3500 672 3606 
Q 575 3713 575 3834 
z
M 1159 781 
Q 1159 397 1236 308 
Q 1313 219 1619 197 
Q 1650 166 1650 89 
Q 1650 13 1619 -13 
Q 1069 0 909 0 
Q 731 0 191 -13 
Q 166 13 166 89 
Q 166 166 191 197 
Q 497 222 575 309 
Q 653 397 653 781 
L 653 2028 
Q 653 2297 579 2367 
Q 506 2438 238 2463 
Q 200 2572 225 2644 
Q 819 2722 1100 2828 
Q 1184 2828 1184 2784 
Q 1184 2769 1181 2739 
Q 1178 2709 1175 2620 
Q 1172 2531 1167 2448 
Q 1163 2366 1161 2256 
Q 1159 2147 1159 2056 
L 1159 781 
z
" transform="scale(0.015625)"/>
       <path id="LinLibertine-6d" d="M 1106 2291 
Q 1106 2213 1150 2275 
Q 1159 2284 1166 2291 
Q 1659 2809 2138 2809 
Q 2381 2809 2556 2676 
Q 2731 2544 2778 2341 
Q 2794 2278 2847 2338 
Q 3006 2506 3197 2615 
Q 3388 2725 3559 2767 
Q 3731 2809 3903 2809 
Q 4294 2809 4428 2546 
Q 4563 2284 4563 1791 
L 4563 781 
Q 4563 397 4630 308 
Q 4697 219 4972 197 
Q 4997 172 4997 95 
Q 4997 19 4972 -13 
Q 4422 0 4313 0 
Q 4197 0 3659 -13 
Q 3634 19 3634 95 
Q 3634 172 3659 197 
Q 3922 216 3989 309 
Q 4056 403 4056 781 
L 4056 1906 
Q 4056 2213 3961 2345 
Q 3866 2478 3675 2478 
Q 3216 2478 2828 2053 
Q 2834 1975 2834 1797 
L 2834 781 
Q 2834 397 2898 308 
Q 2963 219 3213 197 
Q 3238 172 3238 92 
Q 3238 13 3213 -13 
Q 2663 0 2584 0 
Q 2469 0 1931 -13 
Q 1906 13 1906 89 
Q 1906 166 1931 197 
Q 2200 216 2264 306 
Q 2328 397 2328 781 
L 2328 1894 
Q 2328 2475 1906 2478 
Q 1600 2478 1216 2100 
Q 1106 1984 1106 1831 
L 1106 781 
Q 1106 513 1139 400 
Q 1172 288 1240 252 
Q 1309 216 1491 197 
Q 1519 169 1519 92 
Q 1519 16 1491 -13 
Q 953 0 856 0 
Q 691 0 166 -13 
Q 141 13 141 89 
Q 141 166 166 197 
Q 447 216 525 309 
Q 603 403 603 781 
L 603 2028 
Q 603 2297 528 2367 
Q 453 2438 184 2463 
Q 147 2572 172 2644 
Q 672 2706 978 2828 
Q 1028 2828 1056 2778 
Q 1106 2663 1106 2291 
z
" transform="scale(0.015625)"/>
      </defs>
      <use xlink:href="#LinLibertine-4d"/>
      <use xlink:href="#LinLibertine-65" x="83.886719"/>
      <use xlink:href="#LinLibertine-61" x="128.564453"/>
      <use xlink:href="#LinLibertine-6e" x="174.21875"/>
      <use xlink:href="#LinLibertine-20" x="228.417969"/>
      <use xlink:href="#LinLibertine-53" x="253.417969"/>
      <use xlink:href="#LinLibertine-65" x="301.904297"/>
      <use xlink:href="#LinLibertine-6e" x="346.582031"/>
      <use xlink:href="#LinLibertine-74" x="400.78125"/>
      <use xlink:href="#LinLibertine-69" x="432.373047"/>
      <use xlink:href="#LinLibertine-6d" x="459.472656"/>
      <use xlink:href="#LinLibertine-65" x="538.427734"/>
      <use xlink:href="#LinLibertine-6e" x="583.105469"/>
      <use xlink:href="#LinLibertine-74" x="637.304688"/>
     </g>
    </g>
   </g>
   <g id="line2d_45">
    <path d="M 98.347955 197.58625 
L 161.757045 191.389364 
L 225.166136 231.77425 
L 288.575227 245.860536 
L 351.984318 336.672566 
L 415.393409 218.143883 
L 478.8025 267.743855 
L 542.211591 293.212917 
L 605.620682 265.692317 
L 669.029773 277.192404 
L 732.438864 234.54625 
L 795.847955 228.023897 
L 859.257045 198.192152 
" clip-path="url(#p6edd5861ad)" style="fill: none; stroke: #e3000f; stroke-width: 1.5; stroke-linecap: square"/>
   </g>
   <g id="line2d_46">
    <path d="M 98.347955 201.934485 
L 161.757045 243.634775 
L 225.166136 258.501806 
L 288.575227 215.96301 
L 351.984318 249.232343 
L 415.393409 252.624511 
L 478.8025 270.209408 
L 542.211591 224.342569 
L 605.620682 275.612917 
L 669.029773 186.753147 
L 732.438864 245.689969 
L 795.847955 209.488623 
L 859.257045 265.34625 
" clip-path="url(#p6edd5861ad)" style="fill: none; stroke: #000000; stroke-width: 1.5; stroke-linecap: square"/>
   </g>
   <g id="line2d_47">
    <path d="M 98.347955 175.14625 
L 161.757045 228.317037 
L 225.166136 291.774637 
L 288.575227 220.54625 
L 351.984318 284.94625 
L 415.393409 237.807426 
L 478.8025 204.30625 
L 542.211591 283.05625 
L 605.620682 215.093618 
L 669.029773 223.935724 
L 732.438864 202.125197 
L 795.847955 190.86625 
L 859.257045 265.780053 
" clip-path="url(#p6edd5861ad)" style="fill: none; stroke: #1aa037; stroke-width: 1.5; stroke-linecap: square"/>
   </g>
   <g id="line2d_48">
    <path d="M 98.347955 213.223173 
L 161.757045 171.952702 
L 225.166136 237.989728 
L 288.575227 198.028885 
L 351.984318 205.056888 
L 415.393409 212.49625 
L 478.8025 169.139508 
L 542.211591 184.14625 
L 605.620682 187.827149 
L 669.029773 268.351128 
L 732.438864 215.64625 
L 795.847955 229.189728 
L 859.257045 279.195914 
" clip-path="url(#p6edd5861ad)" style="fill: none; stroke: #ffef00; stroke-width: 1.5; stroke-linecap: square"/>
   </g>
   <g id="line2d_49">
    <path d="M 98.347955 292.904145 
L 161.757045 227.785274 
L 225.166136 186.753147 
L 288.575227 210.590694 
L 351.984318 218.335724 
L 415.393409 245.784088 
L 478.8025 205.195662 
L 542.211591 234.54625 
L 605.620682 266.327142 
L 669.029773 220.54625 
L 732.438864 273.22532 
L 795.847955 193.040368 
L 859.257045 256.034622 
" clip-path="url(#p6edd5861ad)" style="fill: none; stroke: #0489db; stroke-width: 1.5; stroke-linecap: square"/>
   </g>
   <g id="line2d_50">
    <path d="M 98.347955 234.54625 
L 161.757045 244.876685 
L 225.166136 225.25463 
L 288.575227 213.105366 
L 351.984318 247.74625 
L 415.393409 181.298792 
L 478.8025 241.307226 
L 542.211591 242.300096 
L 605.620682 220.54625 
L 669.029773 266.778808 
L 732.438864 237.732457 
L 795.847955 198.192152 
L 859.257045 256.14625 
" clip-path="url(#p6edd5861ad)" style="fill: none; stroke: #800080; stroke-width: 1.5; stroke-linecap: square"/>
   </g>
   <g id="line2d_51">
    <path d="M 478.8025 456.30625 
L 478.8025 12.78625 
" clip-path="url(#p6edd5861ad)" style="fill: none; stroke-dasharray: 5.55,2.4; stroke-dashoffset: 0; stroke: #808080; stroke-width: 1.5"/>
   </g>
   <g id="patch_3">
    <path d="M 60.3025 456.30625 
L 60.3025 12.78625 
" style="fill: none; stroke: #000000; stroke-width: 0.8; stroke-linejoin: miter; stroke-linecap: square"/>
   </g>
   <g id="patch_4">
    <path d="M 897.3025 456.30625 
L 897.3025 12.78625 
" style="fill: none; stroke: #000000; stroke-width: 0.8; stroke-linejoin: miter; stroke-linecap: square"/>
   </g>
   <g id="patch_5">
    <path d="M 60.3025 456.30625 
L 897.3025 456.30625 
" style="fill: none; stroke: #000000; stroke-width: 0.8; stroke-linejoin: miter; stroke-linecap: square"/>
   </g>
   <g id="patch_6">
    <path d="M 60.3025 12.78625 
L 897.3025 12.78625 
" style="fill: none; stroke: #000000; stroke-width: 0.8; stroke-linejoin: miter; stroke-linecap: square"/>
   </g>
   <g id="text_25">
    <!-- Positive → -->
    <g style="fill: #006600" transform="translate(22.337216 166.991437) rotate(-90) scale(0.14 -0.14)">
     <defs>
      <path id="LinLibertine-50" d="M 1209 3547 
L 1209 2053 
Q 1325 2022 1697 2022 
Q 2172 2022 2411 2256 
Q 2650 2491 2650 2994 
Q 2650 3550 2406 3753 
Q 2163 3956 1766 3956 
Q 1209 3956 1209 3547 
z
M 666 3347 
Q 666 3731 567 3823 
Q 469 3916 109 3928 
Q 78 3953 78 4031 
Q 78 4109 109 4141 
Q 750 4128 934 4128 
Q 1075 4128 1408 4150 
Q 1741 4172 1813 4172 
Q 2228 4172 2528 4064 
Q 2828 3956 2975 3779 
Q 3122 3603 3183 3440 
Q 3244 3278 3244 3109 
Q 3244 2884 3167 2670 
Q 3091 2456 2928 2254 
Q 2766 2053 2455 1929 
Q 2144 1806 1728 1806 
Q 1409 1806 1209 1869 
L 1209 781 
Q 1209 403 1331 311 
Q 1453 219 1863 197 
Q 1894 166 1894 89 
Q 1894 13 1863 -13 
Q 1222 0 941 0 
Q 734 0 109 -13 
Q 78 13 78 89 
Q 78 166 109 197 
Q 469 209 567 303 
Q 666 397 666 781 
L 666 3347 
z
" transform="scale(0.015625)"/>
      <path id="LinLibertine-6f" d="M 263 1313 
Q 263 1947 616 2363 
Q 997 2809 1619 2809 
Q 2078 2809 2395 2582 
Q 2713 2356 2838 2042 
Q 2963 1728 2963 1369 
Q 2963 700 2547 294 
Q 2181 -66 1606 -63 
Q 966 -63 614 353 
Q 263 769 263 1313 
z
M 1522 2584 
Q 813 2584 813 1459 
Q 813 1253 861 1042 
Q 909 831 1004 626 
Q 1100 422 1279 290 
Q 1459 159 1697 159 
Q 1978 159 2195 390 
Q 2413 622 2413 1166 
Q 2413 1850 2175 2217 
Q 1938 2584 1522 2584 
z
" transform="scale(0.015625)"/>
      <path id="LinLibertine-73" d="M 306 884 
Q 338 916 406 916 
Q 475 916 506 891 
Q 616 438 756 300 
Q 897 147 1209 147 
Q 1416 147 1584 262 
Q 1753 378 1753 594 
Q 1753 806 1622 934 
Q 1491 1063 1100 1222 
Q 716 1381 556 1567 
Q 397 1753 397 2094 
Q 397 2394 665 2601 
Q 934 2809 1300 2809 
Q 1447 2809 1600 2787 
Q 1753 2766 1923 2730 
Q 2094 2694 2138 2688 
Q 2138 2603 2119 2370 
Q 2100 2138 2100 2009 
Q 2069 1978 1997 1978 
Q 1925 1978 1894 2003 
Q 1863 2194 1789 2322 
Q 1716 2450 1616 2504 
Q 1516 2559 1442 2578 
Q 1369 2597 1300 2597 
Q 1128 2597 989 2486 
Q 850 2375 850 2188 
Q 850 2084 884 2003 
Q 919 1922 961 1870 
Q 1003 1819 1103 1764 
Q 1203 1709 1272 1681 
Q 1341 1653 1491 1594 
Q 2241 1309 2241 744 
Q 2241 519 2134 351 
Q 2028 184 1862 98 
Q 1697 13 1536 -25 
Q 1375 -63 1222 -63 
Q 909 -63 641 6 
Q 597 19 513 19 
Q 450 19 353 0 
Q 350 334 306 884 
z
" transform="scale(0.015625)"/>
      <path id="LinLibertine-76" d="M 2081 2547 
Q 2050 2572 2048 2648 
Q 2047 2725 2081 2759 
Q 2556 2747 2695 2747 
Q 2834 2747 3116 2759 
Q 3147 2728 3148 2650 
Q 3150 2572 3116 2547 
Q 2984 2534 2898 2503 
Q 2813 2472 2750 2398 
Q 2688 2325 2656 2265 
Q 2625 2206 2569 2075 
L 1716 72 
Q 1653 -75 1563 -78 
Q 1453 -78 1403 56 
L 584 2081 
Q 575 2103 563 2138 
Q 472 2369 392 2444 
Q 313 2519 72 2547 
Q 41 2572 39 2648 
Q 38 2725 72 2759 
Q 547 2747 634 2747 
Q 841 2747 1313 2759 
Q 1344 2728 1344 2650 
Q 1344 2572 1313 2547 
Q 1238 2541 1186 2530 
Q 1134 2519 1096 2511 
Q 1059 2503 1045 2475 
Q 1031 2447 1020 2436 
Q 1009 2425 1021 2378 
Q 1034 2331 1039 2312 
Q 1044 2294 1072 2222 
Q 1100 2150 1113 2119 
L 1575 884 
Q 1653 688 1693 680 
Q 1734 672 1813 863 
L 2328 2119 
Q 2431 2363 2384 2445 
Q 2338 2528 2081 2547 
z
" transform="scale(0.015625)"/>
      <path id="LinLibertine-2192" d="M 5478 525 
L 5234 525 
Q 5459 1056 5947 1528 
L 378 1528 
L 378 1863 
L 5947 1863 
Q 5531 2203 5222 2869 
L 5478 2869 
Q 5478 2856 5670 2650 
Q 5863 2444 6208 2166 
Q 6553 1888 6859 1759 
L 6859 1613 
Q 6259 1403 5478 525 
z
" transform="scale(0.015625)"/>
     </defs>
     <use xlink:href="#LinLibertine-50"/>
     <use xlink:href="#LinLibertine-6f" x="53.076172"/>
     <use xlink:href="#LinLibertine-73" x="103.466797"/>
     <use xlink:href="#LinLibertine-69" x="142.431641"/>
     <use xlink:href="#LinLibertine-74" x="169.53125"/>
     <use xlink:href="#LinLibertine-69" x="201.123047"/>
     <use xlink:href="#LinLibertine-76" x="228.222656"/>
     <use xlink:href="#LinLibertine-65" x="277.880859"/>
     <use xlink:href="#LinLibertine-20" x="322.558594"/>
     <use xlink:href="#LinLibertine-2192" x="347.558594"/>
    </g>
   </g>
   <g id="text_26">
    <!-- ← Negative -->
    <g style="fill: #ff0000" transform="translate(22.282528 369.422469) rotate(-90) scale(0.14 -0.14)">
     <defs>
      <path id="LinLibertine-2190" d="M 1759 2869 
L 2003 2869 
Q 1778 2338 1294 1863 
L 6859 1863 
L 6859 1528 
L 1294 1528 
Q 1709 1188 2016 525 
L 1759 525 
Q 1759 538 1567 742 
Q 1375 947 1029 1225 
Q 684 1503 378 1631 
L 378 1778 
Q 978 1991 1759 2869 
z
" transform="scale(0.015625)"/>
      <path id="LinLibertine-4e" d="M 3559 3278 
Q 3559 3503 3539 3620 
Q 3519 3738 3442 3805 
Q 3366 3872 3283 3890 
Q 3200 3909 3003 3928 
Q 2972 3953 2970 4031 
Q 2969 4109 3003 4141 
Q 3644 4128 3713 4128 
Q 3803 4128 4428 4141 
Q 4453 4109 4453 4032 
Q 4453 3956 4428 3928 
Q 4069 3891 3970 3789 
Q 3872 3688 3872 3278 
L 3872 134 
Q 3872 -63 3725 -63 
Q 3584 -63 3469 91 
L 1234 2913 
Q 1069 3125 1017 3123 
Q 966 3122 966 2809 
L 966 850 
Q 966 625 986 508 
Q 1006 391 1082 323 
Q 1159 256 1242 237 
Q 1325 219 1522 197 
Q 1547 166 1548 89 
Q 1550 13 1522 -13 
Q 881 0 813 0 
Q 722 0 97 -13 
Q 66 13 64 89 
Q 63 166 97 197 
Q 456 234 554 337 
Q 653 441 653 850 
L 653 3519 
Q 622 3659 481 3787 
Q 341 3916 147 3928 
Q 116 3953 116 4031 
Q 116 4109 147 4141 
L 1013 4128 
L 3206 1300 
Q 3250 1244 3301 1172 
Q 3353 1100 3379 1069 
Q 3406 1038 3434 1005 
Q 3463 972 3481 959 
Q 3500 947 3513 947 
Q 3556 947 3559 1141 
L 3559 3278 
z
" transform="scale(0.015625)"/>
      <path id="LinLibertine-67" d="M 2041 1784 
Q 2041 2181 1881 2397 
Q 1722 2613 1422 2613 
Q 909 2613 909 1931 
Q 909 1753 928 1622 
Q 947 1491 1005 1353 
Q 1063 1216 1188 1142 
Q 1313 1069 1503 1069 
Q 2041 1069 2041 1784 
z
M 844 -63 
Q 647 -300 647 -666 
Q 647 -953 915 -1120 
Q 1184 -1288 1416 -1288 
Q 1716 -1288 1997 -1209 
Q 2278 -1131 2473 -965 
Q 2669 -800 2669 -581 
Q 2669 -459 2598 -376 
Q 2528 -294 2344 -184 
Q 2147 -75 1569 -78 
Q 1538 -78 1377 -87 
Q 1216 -97 1100 -97 
Q 959 -94 844 -63 
z
M 2841 2478 
Q 2719 2478 2663 2591 
Q 2613 2669 2534 2669 
Q 2478 2669 2397 2617 
Q 2316 2566 2278 2516 
Q 2553 2234 2553 1850 
Q 2553 1403 2236 1137 
Q 1919 872 1472 872 
Q 1119 872 891 1006 
Q 775 847 775 634 
Q 775 450 897 359 
Q 1019 269 1184 269 
L 1375 281 
Q 1631 313 1806 313 
Q 2484 313 2741 103 
Q 3022 -128 3022 -416 
Q 3022 -747 2750 -1008 
Q 2478 -1269 2070 -1395 
Q 1663 -1522 1222 -1522 
Q 794 -1522 500 -1350 
Q 206 -1178 206 -794 
Q 206 -334 728 -19 
Q 434 128 434 475 
Q 434 647 511 830 
Q 588 1013 716 1119 
Q 384 1438 384 1838 
Q 384 2266 711 2537 
Q 1038 2809 1478 2809 
Q 1875 2809 2144 2631 
Q 2259 2784 2451 2870 
Q 2644 2956 2784 2956 
Q 2913 2956 2995 2889 
Q 3078 2822 3078 2719 
Q 3078 2622 3004 2550 
Q 2931 2478 2841 2478 
z
" transform="scale(0.015625)"/>
     </defs>
     <use xlink:href="#LinLibertine-2190"/>
     <use xlink:href="#LinLibertine-20" x="112.988281"/>
     <use xlink:href="#LinLibertine-4e" x="137.988281"/>
     <use xlink:href="#LinLibertine-65" x="207.861328"/>
     <use xlink:href="#LinLibertine-67" x="252.539062"/>
     <use xlink:href="#LinLibertine-61" x="302.539062"/>
     <use xlink:href="#LinLibertine-74" x="348.193359"/>
     <use xlink:href="#LinLibertine-69" x="379.785156"/>
     <use xlink:href="#LinLibertine-76" x="406.884766"/>
     <use xlink:href="#LinLibertine-65" x="456.542969"/>
    </g>
   </g>
   <g id="text_27">
    <!-- Election Day -->
    <g transform="translate(494.654773 95.94625) scale(0.16 -0.16)">
     <defs>
      <path id="LinLibertine-45" d="M 1747 2309 
Q 2138 2309 2227 2386 
Q 2316 2463 2328 2747 
Q 2353 2778 2431 2778 
Q 2509 2778 2541 2747 
Q 2528 2363 2528 2194 
Q 2528 2078 2541 1631 
Q 2509 1600 2432 1600 
Q 2356 1600 2328 1631 
Q 2316 1803 2291 1878 
Q 2266 1953 2137 2011 
Q 2009 2069 1747 2069 
L 1166 2069 
L 1166 525 
Q 1166 250 1394 250 
L 2266 250 
Q 2875 250 3103 1088 
Q 3219 1113 3328 1056 
Q 3250 550 3091 -13 
Q 2578 0 2272 0 
L 897 0 
Q 378 -6 63 -13 
Q 38 13 38 89 
Q 38 166 63 197 
Q 422 209 522 303 
Q 622 397 622 781 
L 622 3347 
Q 622 3731 522 3823 
Q 422 3916 63 3928 
Q 38 3953 38 4031 
Q 38 4109 63 4141 
L 891 4128 
L 2522 4128 
Q 2688 4128 2834 4153 
Q 2859 4153 2859 4134 
Q 2909 3916 3003 3206 
Q 2900 3156 2791 3175 
Q 2669 3559 2534 3715 
Q 2400 3872 2069 3872 
L 1394 3872 
Q 1284 3872 1225 3792 
Q 1166 3713 1166 3591 
L 1166 2309 
L 1747 2309 
z
" transform="scale(0.015625)"/>
      <path id="LinLibertine-6c" d="M 609 781 
L 609 3578 
Q 609 3784 598 3886 
Q 588 3988 517 4036 
Q 447 4084 409 4087 
Q 372 4091 197 4103 
Q 125 4175 159 4294 
Q 728 4338 1056 4469 
Q 1141 4469 1141 4403 
Q 1116 4147 1113 3731 
L 1113 781 
Q 1113 397 1194 305 
Q 1275 213 1575 197 
Q 1600 166 1600 89 
Q 1600 13 1575 -13 
Q 1025 0 863 0 
Q 684 0 147 -13 
Q 116 13 116 89 
Q 116 166 147 197 
Q 447 209 528 303 
Q 609 397 609 781 
z
" transform="scale(0.015625)"/>
      <path id="LinLibertine-63" d="M 2547 581 
Q 2322 209 2073 73 
Q 1825 -63 1503 -63 
Q 909 -63 573 317 
Q 238 697 238 1331 
Q 238 1978 641 2393 
Q 1044 2809 1550 2809 
Q 2003 2809 2265 2640 
Q 2528 2472 2528 2203 
Q 2528 2069 2428 1994 
Q 2328 1919 2216 1919 
Q 1997 1919 1972 2150 
Q 1959 2291 1929 2370 
Q 1900 2450 1798 2523 
Q 1697 2597 1516 2597 
Q 1197 2597 992 2294 
Q 788 1991 788 1472 
Q 788 922 1038 586 
Q 1288 250 1644 250 
Q 2084 250 2413 672 
Q 2516 659 2547 581 
z
" transform="scale(0.015625)"/>
      <path id="LinLibertine-44" d="M 1222 531 
Q 1222 359 1353 282 
Q 1484 206 1919 206 
Q 2284 206 2565 279 
Q 2847 353 3090 525 
Q 3334 697 3465 1023 
Q 3597 1350 3597 1819 
Q 3597 2209 3501 2567 
Q 3406 2925 3200 3239 
Q 2994 3553 2623 3737 
Q 2253 3922 1759 3922 
Q 1222 3922 1222 3609 
L 1222 531 
z
M 947 4128 
Q 1050 4128 1414 4134 
Q 1778 4141 2003 4141 
Q 2925 4141 3569 3505 
Q 4213 2869 4213 1972 
Q 4213 1409 4017 1001 
Q 3822 594 3498 383 
Q 3175 172 2833 79 
Q 2491 -13 2119 -13 
Q 1734 -13 1376 -6 
Q 1019 0 953 0 
Q 747 0 122 -13 
Q 91 13 91 89 
Q 91 166 122 197 
Q 481 209 579 303 
Q 678 397 678 781 
L 678 3347 
Q 678 3731 579 3823 
Q 481 3916 122 3928 
Q 91 3953 91 4031 
Q 91 4109 122 4141 
Q 763 4128 947 4128 
z
" transform="scale(0.015625)"/>
      <path id="LinLibertine-79" d="M 1306 -1025 
Q 1050 -1484 684 -1484 
Q 556 -1484 470 -1417 
Q 384 -1350 384 -1247 
Q 384 -1163 464 -1067 
Q 544 -972 666 -972 
Q 697 -972 751 -981 
Q 806 -991 850 -991 
Q 1069 -991 1172 -806 
Q 1325 -494 1422 -219 
Q 1500 0 1331 384 
L 606 2069 
Q 513 2284 455 2371 
Q 397 2459 323 2496 
Q 250 2534 103 2547 
Q 78 2572 78 2648 
Q 78 2725 103 2759 
Q 359 2747 622 2747 
Q 872 2747 1344 2759 
Q 1369 2728 1369 2650 
Q 1369 2572 1344 2547 
Q 1231 2538 1167 2517 
Q 1103 2497 1072 2473 
Q 1041 2450 1045 2395 
Q 1050 2341 1065 2298 
Q 1081 2256 1119 2166 
Q 1128 2144 1134 2131 
L 1703 800 
Q 1722 753 1742 731 
Q 1763 709 1781 711 
Q 1800 713 1819 733 
Q 1838 753 1856 794 
L 2491 2259 
Q 2563 2413 2469 2470 
Q 2375 2528 2181 2547 
Q 2150 2572 2150 2648 
Q 2150 2725 2181 2759 
Q 2656 2747 2766 2747 
Q 2900 2747 3219 2759 
Q 3250 2728 3250 2650 
Q 3250 2572 3219 2547 
Q 3053 2534 2915 2412 
Q 2778 2291 2700 2138 
Q 2291 1281 1569 -475 
Q 1434 -794 1306 -1025 
z
" transform="scale(0.015625)"/>
     </defs>
     <use xlink:href="#LinLibertine-45"/>
     <use xlink:href="#LinLibertine-6c" x="54.882812"/>
     <use xlink:href="#LinLibertine-65" x="81.25"/>
     <use xlink:href="#LinLibertine-63" x="125.927734"/>
     <use xlink:href="#LinLibertine-74" x="168.701172"/>
     <use xlink:href="#LinLibertine-69" x="200.292969"/>
     <use xlink:href="#LinLibertine-6f" x="227.392578"/>
     <use xlink:href="#LinLibertine-6e" x="277.783203"/>
     <use xlink:href="#LinLibertine-20" x="331.982422"/>
     <use xlink:href="#LinLibertine-44" x="356.982422"/>
     <use xlink:href="#LinLibertine-61" x="427.050781"/>
     <use xlink:href="#LinLibertine-79" x="472.705078"/>
    </g>
   </g>
   <g id="legend_1">
    <g id="patch_7">
     <path d="M 908.5025 163.24125 
L 1025.645 163.24125 
Q 1028.845 163.24125 1028.845 160.04125 
L 1028.845 23.98625 
Q 1028.845 20.78625 1025.645 20.78625 
L 908.5025 20.78625 
Q 905.3025 20.78625 905.3025 23.98625 
L 905.3025 160.04125 
Q 905.3025 163.24125 908.5025 163.24125 
z
" style="fill: #ffffff; opacity: 0.8; stroke: #cccccc; stroke-linejoin: miter"/>
    </g>
    <g id="line2d_52">
     <path d="M 911.7025 32.78625 
L 927.7025 32.78625 
L 943.7025 32.78625 
" style="fill: none; stroke: #e3000f; stroke-width: 1.5; stroke-linecap: square"/>
    </g>
    <g id="text_28">
     <!-- SPD -->
     <g transform="translate(956.5025 38.38625) scale(0.16 -0.16)">
      <use xlink:href="#LinLibertine-53"/>
      <use xlink:href="#LinLibertine-50" x="48.486328"/>
      <use xlink:href="#LinLibertine-44" x="101.5625"/>
     </g>
    </g>
    <g id="line2d_53">
     <path d="M 911.7025 55.72875 
L 927.7025 55.72875 
L 943.7025 55.72875 
" style="fill: none; stroke: #000000; stroke-width: 1.5; stroke-linecap: square"/>
    </g>
    <g id="text_29">
     <!-- CDU/CSU -->
     <g transform="translate(956.5025 61.32875) scale(0.16 -0.16)">
      <defs>
       <path id="LinLibertine-43" d="M 2284 -63 
Q 1625 -63 1148 246 
Q 672 556 455 1017 
Q 238 1478 238 2016 
Q 238 3047 916 3669 
Q 1509 4213 2291 4213 
Q 2750 4213 3189 4070 
Q 3628 3928 3694 3922 
Q 3803 3250 3834 2931 
Q 3713 2869 3622 2900 
Q 3297 3975 2222 3975 
Q 1663 3975 1200 3406 
Q 1019 3184 919 2862 
Q 819 2541 819 2138 
Q 819 1644 972 1216 
Q 1125 788 1465 492 
Q 1806 197 2278 197 
Q 2725 197 3075 361 
Q 3425 525 3763 897 
Q 3859 897 3909 800 
Q 3250 -63 2284 -63 
z
" transform="scale(0.015625)"/>
       <path id="LinLibertine-55" d="M 1100 3347 
L 1100 1722 
Q 1100 1453 1112 1279 
Q 1125 1106 1203 882 
Q 1281 659 1428 519 
Q 1759 200 2188 197 
Q 2500 197 2725 297 
Q 2950 397 3072 540 
Q 3194 684 3264 912 
Q 3334 1141 3350 1328 
Q 3366 1516 3366 1772 
L 3366 3347 
Q 3366 3553 3347 3658 
Q 3328 3763 3245 3820 
Q 3163 3878 3078 3893 
Q 2994 3909 2778 3928 
Q 2753 3953 2753 4031 
Q 2753 4109 2778 4141 
Q 3419 4128 3519 4128 
Q 3544 4128 4172 4141 
Q 4197 4109 4197 4032 
Q 4197 3956 4172 3928 
Q 3941 3903 3861 3875 
Q 3781 3847 3731 3728 
Q 3681 3609 3681 3347 
L 3681 1888 
Q 3681 1434 3611 1098 
Q 3541 763 3364 491 
Q 3188 219 2861 78 
Q 2534 -63 2053 -63 
Q 1803 -63 1570 4 
Q 1338 72 1094 231 
Q 850 391 703 720 
Q 556 1050 556 1509 
L 556 3347 
Q 556 3725 464 3820 
Q 372 3916 63 3928 
Q 38 3953 38 4031 
Q 38 4109 63 4141 
Q 703 4128 825 4128 
Q 1063 4128 1691 4141 
Q 1716 4109 1716 4032 
Q 1716 3956 1691 3928 
Q 1306 3916 1203 3823 
Q 1100 3731 1100 3347 
z
" transform="scale(0.015625)"/>
       <path id="LinLibertine-2f" d="M 1875 4134 
L 359 -378 
L 97 -378 
L 1613 4134 
L 1875 4134 
z
" transform="scale(0.015625)"/>
      </defs>
      <use xlink:href="#LinLibertine-43"/>
      <use xlink:href="#LinLibertine-44" x="64.599609"/>
      <use xlink:href="#LinLibertine-55" x="134.667969"/>
      <use xlink:href="#LinLibertine-2f" x="200.732422"/>
      <use xlink:href="#LinLibertine-43" x="233.007812"/>
      <use xlink:href="#LinLibertine-53" x="297.607422"/>
      <use xlink:href="#LinLibertine-55" x="346.09375"/>
     </g>
    </g>
    <g id="line2d_54">
     <path d="M 911.7025 78.67125 
L 927.7025 78.67125 
L 943.7025 78.67125 
" style="fill: none; stroke: #1aa037; stroke-width: 1.5; stroke-linecap: square"/>
    </g>
    <g id="text_30">
     <!-- Grüne -->
     <g transform="translate(956.5025 84.27125) scale(0.16 -0.16)">
      <defs>
       <path id="LinLibertine-47" d="M 2413 4213 
Q 2853 4213 3261 4067 
Q 3669 3922 3809 3922 
Q 3866 3319 3950 2938 
L 3731 2900 
Q 3584 3394 3270 3684 
Q 2956 3975 2322 3975 
Q 1663 3975 1225 3450 
Q 788 2925 788 2094 
Q 788 1769 903 1434 
Q 1019 1100 1230 812 
Q 1441 525 1780 345 
Q 2119 166 2528 166 
Q 3131 166 3456 475 
L 3456 1428 
Q 3456 1606 3343 1657 
Q 3231 1709 2931 1734 
Q 2906 1766 2906 1848 
Q 2906 1931 2931 1966 
Q 3534 1953 3725 1953 
Q 3909 1953 4294 1966 
Q 4325 1934 4325 1850 
Q 4325 1766 4294 1734 
Q 4141 1722 4070 1655 
Q 4000 1588 4000 1428 
L 4000 709 
Q 4000 613 4103 531 
Q 3406 -63 2381 -63 
Q 1434 -63 820 528 
Q 206 1119 206 1966 
Q 206 2644 531 3166 
Q 856 3688 1353 3950 
Q 1850 4213 2413 4213 
z
" transform="scale(0.015625)"/>
       <path id="LinLibertine-72" d="M 1147 2291 
Q 1147 2259 1156 2246 
Q 1166 2234 1197 2278 
Q 1325 2497 1514 2653 
Q 1703 2809 1906 2809 
Q 2091 2809 2191 2711 
Q 2291 2613 2291 2503 
Q 2291 2381 2198 2281 
Q 2106 2181 1991 2181 
Q 1947 2181 1901 2204 
Q 1856 2228 1834 2250 
Q 1813 2272 1777 2314 
Q 1741 2356 1728 2369 
Q 1684 2413 1594 2413 
Q 1516 2413 1300 2100 
Q 1147 1869 1147 1672 
L 1147 781 
Q 1147 397 1233 311 
Q 1319 225 1672 197 
Q 1703 166 1703 89 
Q 1703 13 1672 -13 
Q 1122 0 897 0 
Q 706 0 166 -13 
Q 141 13 141 89 
Q 141 166 166 197 
Q 478 216 559 306 
Q 641 397 641 781 
L 641 2028 
Q 641 2297 567 2367 
Q 494 2438 225 2463 
Q 188 2572 213 2644 
Q 713 2706 1019 2828 
Q 1069 2828 1094 2778 
Q 1147 2663 1147 2291 
z
" transform="scale(0.015625)"/>
       <path id="LinLibertine-fc" d="M 788 3681 
Q 788 3809 877 3898 
Q 966 3988 1087 3988 
Q 1209 3988 1298 3898 
Q 1388 3809 1388 3681 
Q 1388 3559 1302 3468 
Q 1216 3378 1087 3378 
Q 959 3378 873 3468 
Q 788 3559 788 3681 
z
M 1869 3681 
Q 1869 3809 1958 3898 
Q 2047 3988 2169 3988 
Q 2291 3988 2381 3898 
Q 2472 3809 2472 3681 
Q 2472 3559 2381 3468 
Q 2291 3378 2169 3378 
Q 2047 3378 1958 3468 
Q 1869 3559 1869 3681 
z
M 1388 -63 
Q 947 -63 755 182 
Q 563 428 563 806 
L 563 2034 
Q 563 2334 483 2431 
Q 403 2528 166 2547 
Q 141 2572 141 2648 
Q 141 2725 166 2759 
Q 641 2747 819 2747 
Q 978 2747 1044 2759 
Q 1094 2759 1094 2719 
Q 1069 2250 1069 2059 
L 1069 897 
Q 1069 519 1225 378 
Q 1381 238 1581 238 
Q 1869 238 2222 544 
Q 2325 634 2322 794 
L 2322 2028 
Q 2322 2334 2245 2434 
Q 2169 2534 1925 2547 
Q 1894 2572 1894 2648 
Q 1894 2725 1925 2759 
Q 2400 2747 2578 2747 
Q 2738 2747 2803 2759 
Q 2853 2759 2853 2719 
Q 2828 2250 2828 2059 
L 2828 831 
Q 2828 581 2915 486 
Q 3003 391 3297 366 
Q 3328 334 3328 276 
Q 3328 219 3297 191 
Q 2759 128 2522 -63 
Q 2450 -81 2400 -63 
Q 2328 169 2328 313 
Q 2328 384 2253 319 
Q 1784 -63 1388 -63 
z
" transform="scale(0.015625)"/>
      </defs>
      <use xlink:href="#LinLibertine-47"/>
      <use xlink:href="#LinLibertine-72" x="69.482422"/>
      <use xlink:href="#LinLibertine-fc" x="106.640625"/>
      <use xlink:href="#LinLibertine-6e" x="159.716797"/>
      <use xlink:href="#LinLibertine-65" x="213.916016"/>
     </g>
    </g>
    <g id="line2d_55">
     <path d="M 911.7025 101.61375 
L 927.7025 101.61375 
L 943.7025 101.61375 
" style="fill: none; stroke: #ffef00; stroke-width: 1.5; stroke-linecap: square"/>
    </g>
    <g id="text_31">
     <!-- FDP -->
     <g transform="translate(956.5025 107.21375) scale(0.16 -0.16)">
      <defs>
       <path id="LinLibertine-46" d="M 1759 2069 
L 1166 2069 
L 1166 781 
Q 1166 397 1264 305 
Q 1363 213 1722 197 
Q 1753 166 1753 89 
Q 1753 13 1722 -13 
Q 1081 0 897 0 
Q 691 0 63 -13 
Q 38 13 38 89 
Q 38 166 63 197 
Q 422 209 522 303 
Q 622 397 622 781 
L 622 3347 
Q 622 3731 522 3823 
Q 422 3916 63 3928 
Q 38 3953 38 4031 
Q 38 4109 63 4141 
L 891 4128 
L 2525 4128 
Q 2694 4128 2825 4153 
Q 2847 4153 2850 4134 
Q 2919 3766 2988 3206 
Q 2903 3175 2791 3175 
Q 2713 3425 2623 3559 
Q 2534 3694 2336 3783 
Q 2138 3872 1813 3872 
L 1394 3872 
Q 1163 3872 1166 3653 
L 1166 2309 
L 1759 2309 
Q 2150 2309 2239 2386 
Q 2328 2463 2344 2747 
Q 2369 2778 2445 2778 
Q 2522 2778 2553 2747 
Q 2541 2363 2541 2194 
Q 2541 2078 2553 1631 
Q 2522 1600 2445 1600 
Q 2369 1600 2344 1631 
Q 2331 1803 2304 1878 
Q 2278 1953 2150 2011 
Q 2022 2069 1759 2069 
z
" transform="scale(0.015625)"/>
      </defs>
      <use xlink:href="#LinLibertine-46"/>
      <use xlink:href="#LinLibertine-44" x="47.65625"/>
      <use xlink:href="#LinLibertine-50" x="117.724609"/>
     </g>
    </g>
    <g id="line2d_56">
     <path d="M 911.7025 124.55625 
L 927.7025 124.55625 
L 943.7025 124.55625 
" style="fill: none; stroke: #0489db; stroke-width: 1.5; stroke-linecap: square"/>
    </g>
    <g id="text_32">
     <!-- AfD -->
     <g transform="translate(956.5025 130.15625) scale(0.16 -0.16)">
      <defs>
       <path id="LinLibertine-41" d="M 1684 1813 
L 2816 1813 
L 2216 3553 
L 2175 3553 
L 1522 1897 
Q 1513 1878 1516 1862 
Q 1519 1847 1528 1837 
Q 1538 1828 1559 1822 
Q 1581 1816 1611 1814 
Q 1641 1813 1684 1813 
z
M 991 506 
Q 984 444 971 395 
Q 959 347 1007 314 
Q 1056 281 1084 262 
Q 1113 244 1191 228 
Q 1269 213 1312 209 
Q 1356 206 1434 197 
Q 1459 166 1459 89 
Q 1459 13 1434 -13 
Q 959 0 616 0 
Q 519 0 44 -13 
Q 13 13 13 89 
Q 13 166 44 197 
Q 288 216 428 297 
Q 569 378 684 653 
L 2138 4084 
Q 2278 4084 2491 4213 
L 3809 550 
Q 3847 434 3901 364 
Q 3956 294 4051 259 
Q 4147 225 4195 219 
Q 4244 213 4384 197 
Q 4416 166 4416 89 
Q 4416 13 4384 -13 
Q 3909 0 3653 0 
Q 3288 0 2816 -13 
Q 2791 13 2791 89 
Q 2791 166 2816 197 
Q 2853 197 2914 201 
Q 2975 206 3008 209 
Q 3041 213 3092 219 
Q 3144 225 3169 231 
Q 3194 238 3228 250 
Q 3263 263 3277 281 
Q 3291 300 3300 326 
Q 3309 353 3306 384 
Q 3303 416 3291 459 
L 2919 1544 
L 1569 1544 
Q 1453 1544 1411 1520 
Q 1369 1497 1344 1434 
L 991 506 
z
" transform="scale(0.015625)"/>
       <path id="LinLibertine-66" d="M 1119 781 
Q 1119 397 1203 308 
Q 1288 219 1625 197 
Q 1650 166 1650 89 
Q 1650 13 1625 -13 
Q 1075 0 872 0 
Q 738 0 197 -13 
Q 166 13 166 89 
Q 166 166 197 197 
Q 472 216 544 306 
Q 616 397 616 781 
L 616 2497 
L 172 2497 
Q 141 2497 141 2534 
L 141 2619 
Q 141 2747 288 2747 
L 616 2747 
L 616 3003 
Q 616 3700 958 4084 
Q 1300 4469 1747 4469 
Q 2131 4469 2322 4331 
Q 2528 4178 2528 4006 
Q 2528 3909 2439 3826 
Q 2350 3744 2266 3744 
Q 2100 3744 2009 3950 
Q 1947 4116 1859 4183 
Q 1772 4250 1625 4250 
Q 1119 4250 1119 3109 
L 1119 2747 
L 1813 2747 
Q 1863 2747 1863 2706 
L 1863 2578 
Q 1863 2494 1716 2497 
L 1119 2497 
L 1119 781 
z
" transform="scale(0.015625)"/>
      </defs>
      <use xlink:href="#LinLibertine-41"/>
      <use xlink:href="#LinLibertine-66" x="69.482422"/>
      <use xlink:href="#LinLibertine-44" x="100.439453"/>
     </g>
    </g>
    <g id="line2d_57">
     <path d="M 911.7025 147.49875 
L 927.7025 147.49875 
L 943.7025 147.49875 
" style="fill: none; stroke: #800080; stroke-width: 1.5; stroke-linecap: square"/>
    </g>
    <g id="text_33">
     <!-- Die Linke -->
     <g transform="translate(956.5025 153.09875) scale(0.16 -0.16)">
      <defs>
       <path id="LinLibertine-4c" d="M 941 0 
Q 422 -6 109 -13 
Q 78 13 78 89 
Q 78 166 109 197 
Q 469 209 567 303 
Q 666 397 666 781 
L 666 3347 
Q 666 3731 567 3823 
Q 469 3916 109 3928 
Q 78 3953 78 4031 
Q 78 4109 109 4141 
Q 750 4128 934 4128 
Q 1141 4128 1766 4141 
Q 1791 4109 1791 4032 
Q 1791 3956 1766 3928 
Q 1406 3916 1307 3823 
Q 1209 3731 1209 3347 
L 1209 569 
Q 1209 422 1289 336 
Q 1369 250 1509 250 
L 1978 250 
Q 2447 250 2680 470 
Q 2913 691 3022 1088 
Q 3131 1106 3231 1056 
Q 3169 500 3066 -13 
Q 2475 0 2303 0 
L 941 0 
z
" transform="scale(0.015625)"/>
      </defs>
      <use xlink:href="#LinLibertine-44"/>
      <use xlink:href="#LinLibertine-69" x="70.068359"/>
      <use xlink:href="#LinLibertine-65" x="97.167969"/>
      <use xlink:href="#LinLibertine-20" x="141.845703"/>
      <use xlink:href="#LinLibertine-4c" x="166.845703"/>
      <use xlink:href="#LinLibertine-69" x="219.433594"/>
      <use xlink:href="#LinLibertine-6e" x="246.533203"/>
      <use xlink:href="#LinLibertine-6b" x="300.732422"/>
      <use xlink:href="#LinLibertine-65" x="351.904297"/>
     </g>
    </g>
   </g>
  </g>
 </g>
 <defs>
  <clipPath id="p6edd5861ad">
   <rect x="60.3025" y="12.78625" width="837" height="443.52"/>
  </clipPath>
 </defs>
</svg>
